HIERARCHY
ROOT joint_Root
{
	OFFSET 0.0 0.0 0.0
	CHANNELS 6 Xposition Yposition Zposition Zrotation Xrotation Yrotation 
	JOINT Hips
	{
		OFFSET 4.5925 91.4895 -427.239
		CHANNELS 6 Xposition Yposition Zposition Zrotation Xrotation Yrotation 
		JOINT Spine
		{
			OFFSET 15.7357 0.0 0.0
			CHANNELS 6 Xposition Yposition Zposition Zrotation Xrotation Yrotation 
			JOINT Chest
			{
				OFFSET 8.98455 -0.406207 0.0
				CHANNELS 6 Xposition Yposition Zposition Zrotation Xrotation Yrotation 
				JOINT Neck
				{
					OFFSET 16.3773 0.0 0.0
					CHANNELS 6 Xposition Yposition Zposition Zrotation Xrotation Yrotation 
					JOINT Head
					{
						OFFSET 6.45672 0.0 0.0
						CHANNELS 6 Xposition Yposition Zposition Zrotation Xrotation Yrotation 
						End Site
						{
							OFFSET 0.0 0.0 0.0
						}
					}
				}
				JOINT Shoulder_L
				{
					OFFSET 12.9942 -0.242716 4.98039
					CHANNELS 6 Xposition Yposition Zposition Zrotation Xrotation Yrotation 
					JOINT UpperArm_L
					{
						OFFSET 5.34809 0.0 0.0
						CHANNELS 6 Xposition Yposition Zposition Zrotation Xrotation Yrotation 
						JOINT LowerArm_L
						{
							OFFSET 24.3286 1.87007e-05 0.0
							CHANNELS 6 Xposition Yposition Zposition Zrotation Xrotation Yrotation 
							JOINT Hand_L
							{
								OFFSET 22.2916 0.0 0.0
								CHANNELS 6 Xposition Yposition Zposition Zrotation Xrotation Yrotation 
								End Site
								{
									OFFSET 0.0 0.0 0.0
								}
							}
						}
					}
				}
				JOINT Shoulder_R
				{
					OFFSET 12.9945 -0.242716 -4.98039
					CHANNELS 6 Xposition Yposition Zposition Zrotation Xrotation Yrotation 
					JOINT UpperArm_R
					{
						OFFSET -5.34813 0.0 0.0
						CHANNELS 6 Xposition Yposition Zposition Zrotation Xrotation Yrotation 
						JOINT LowerArm_R
						{
							OFFSET -24.3289 0.000322201 0.0
							CHANNELS 6 Xposition Yposition Zposition Zrotation Xrotation Yrotation 
							JOINT Hand_R
							{
								OFFSET -22.2915 -0.000108084 0.0
								CHANNELS 6 Xposition Yposition Zposition Zrotation Xrotation Yrotation 
								End Site
								{
									OFFSET 0.0 0.0 0.0
								}
							}
						}
					}
				}
			}
		}
		JOINT UpperLeg_L
		{
			OFFSET -2.19248 -6.46944 0.0
			CHANNELS 6 Xposition Yposition Zposition Zrotation Xrotation Yrotation 
			JOINT LowerLeg_L
			{
				OFFSET 39.0811 0.0 -1.23785e-05
				CHANNELS 6 Xposition Yposition Zposition Zrotation Xrotation Yrotation 
				JOINT Foot_L
				{
					OFFSET 40.9854 0.0 -1.26872e-05
					CHANNELS 6 Xposition Yposition Zposition Zrotation Xrotation Yrotation 
					JOINT Toes_L
					{
						OFFSET 11.7543 0.0 0.0
						CHANNELS 6 Xposition Yposition Zposition Zrotation Xrotation Yrotation 
						End Site
						{
							OFFSET 0.0 0.0 0.0
						}
					}
				}
			}
		}
		JOINT UpperLeg_R
		{
			OFFSET -2.19251 6.46944 0.0
			CHANNELS 6 Xposition Yposition Zposition Zrotation Xrotation Yrotation 
			JOINT LowerLeg_R
			{
				OFFSET -39.0811 -0.00228153 -0.0401928
				CHANNELS 6 Xposition Yposition Zposition Zrotation Xrotation Yrotation 
				JOINT Foot_R
				{
					OFFSET -40.9854 0.0 0.0
					CHANNELS 6 Xposition Yposition Zposition Zrotation Xrotation Yrotation 
					JOINT Toes_R
					{
						OFFSET -11.7543 0.0 0.0
						CHANNELS 6 Xposition Yposition Zposition Zrotation Xrotation Yrotation 
						End Site
						{
							OFFSET 0.0 0.0 0.0
						}
					}
				}
			}
		}
	}
}
MOTION
Frames:	6
Frame Time:	0.0333333
0.000000 0.000000 0.000000 0.000000 0.000000 -0.000000 -7.507430 90.157000 -0.143976 85.282300 -5.585720 11.881800 15.735700 0.000005 -0.000001 73.168100 82.075500 -68.868400 8.984550 -0.406207 -0.000000 7.609270 -4.577030 8.899080 16.377300 -0.000001 -0.000001 27.254000 -11.793700 4.583040 6.456720 -0.000001 -0.000000 14.488600 -14.333800 19.819700 12.994200 -0.242716 4.980390 -87.534500 -5.643030 -66.351600 5.348090 -0.000007 -0.000001 -64.948700 -49.331000 -95.945700 24.328600 0.000019 0.000005 16.438900 10.022200 -59.466800 22.291600 -0.000001 0.000005 12.520100 5.374400 -2.123150 12.994500 -0.242716 -4.980390 87.483700 10.263200 -76.144600 -5.348130 -0.000001 -0.000004 -59.495600 30.691900 -8.985680 -24.328900 0.000322 -0.000009 2.429230 7.387370 -18.267500 -22.291500 -0.000108 -0.000004 14.637900 5.414660 -3.420100 -2.192480 -6.469440 -0.000000 -164.651000 -11.881900 2.161520 39.081100 -0.000007 -0.000012 -0.289742 0.439853 33.374500 40.985400 -0.000006 -0.000013 -3.932410 7.815040 -71.829800 11.754300 -0.000000 0.000003 -0.000093 -0.000971 -16.614800 -2.192510 6.469440 -0.000001 -179.830000 24.988300 -173.979000 -39.081100 -0.002282 -0.040193 -0.194542 0.358407 28.899600 -40.985400 0.000008 0.000006 9.082010 16.566300 -73.491500 -11.754300 -0.000006 -0.000006 -0.000404 -0.006541 -16.839500
0.000000 0.000000 0.000000 0.000000 0.000000 -0.000000 -7.532100 90.164200 -0.163439 85.316800 -5.605280 11.944000 15.735700 0.000005 -0.000001 73.091100 82.086800 -68.820500 8.984550 -0.406207 -0.000000 7.580750 -4.591950 8.840710 16.377300 -0.000001 -0.000001 27.225800 -11.773600 4.582350 6.456720 -0.000001 -0.000000 14.442800 -14.296800 19.866000 12.994200 -0.242716 4.980390 -87.521000 -5.659410 -66.297800 5.348090 -0.000007 -0.000001 -64.932200 -49.397600 -96.012100 24.328600 0.000019 0.000005 16.466000 10.057900 -59.422200 22.291600 -0.000001 0.000005 12.494700 5.374660 -2.131430 12.994500 -0.242716 -4.980390 87.479700 10.269800 -76.131500 -5.348130 -0.000001 -0.000004 -59.577300 30.728300 -8.853920 -24.328900 0.000322 -0.000009 2.436550 7.533740 -17.988000 -22.291500 -0.000108 -0.000004 14.684500 5.411490 -3.314550 -2.192480 -6.469440 -0.000000 -164.665000 -11.850300 2.244610 39.081100 -0.000007 -0.000012 -0.287104 0.436898 33.311100 40.985400 -0.000006 -0.000013 -3.959180 7.797410 -71.786900 11.754300 -0.000000 0.000003 -0.000104 -0.001065 -16.618400 -2.192510 6.469440 -0.000001 -179.841000 24.917600 -173.923000 -39.081100 -0.002282 -0.040193 -0.193399 0.356681 28.876200 -40.985400 0.000008 0.000006 9.083060 16.508700 -73.468300 -11.754300 -0.000006 -0.000006 -0.000369 -0.005997 -16.817400
0.000000 0.000000 0.000000 0.000000 0.000000 -0.000000 -7.555620 90.151600 -0.184533 85.318400 -5.670110 11.899700 15.735700 0.000005 -0.000001 73.031800 82.128000 -68.767200 8.984550 -0.406207 -0.000000 7.496520 -4.587080 8.824900 16.377300 -0.000001 -0.000001 27.129400 -11.781300 4.535820 6.456720 -0.000001 -0.000000 14.479000 -14.318700 19.895900 12.994200 -0.242716 4.980390 -87.514300 -5.667920 -66.272200 5.348090 -0.000007 -0.000001 -65.085100 -49.476200 -96.198800 24.328600 0.000019 0.000005 16.436300 10.079000 -59.322300 22.291600 -0.000001 0.000005 12.474100 5.375720 -2.164200 12.994500 -0.242716 -4.980390 87.495100 10.224900 -76.155500 -5.348130 -0.000001 -0.000004 -59.714200 30.609000 -8.716690 -24.328900 0.000322 -0.000009 2.440740 7.624770 -17.816700 -22.291500 -0.000108 -0.000004 14.600400 5.411820 -3.325660 -2.192480 -6.469440 -0.000000 -164.656000 -11.861600 2.187420 39.081100 -0.000007 -0.000012 -0.287571 0.436818 33.358600 40.985400 -0.000006 -0.000013 -3.987300 7.767820 -71.808500 11.754300 -0.000000 0.000003 -0.000095 -0.000980 -16.615200 -2.192510 6.469440 -0.000001 -179.774000 24.860200 -174.037000 -39.081100 -0.002282 -0.040193 -0.191221 0.351557 28.957100 -40.985400 0.000008 0.000006 9.118420 16.490900 -73.497200 -11.754300 -0.000006 -0.000006 -0.000287 -0.004700 -16.764700
0.000000 0.000000 0.000000 0.000000 0.000000 -0.000000 -7.579110 90.151100 -0.199363 85.306300 -5.694310 11.988700 15.735700 0.000005 -0.000001 73.002200 82.131400 -68.738900 8.984550 -0.406207 -0.000000 7.487770 -4.593180 8.822400 16.377300 -0.000001 -0.000001 27.117000 -11.787500 4.523230 6.456720 -0.000001 -0.000000 14.431500 -14.347400 19.892900 12.994200 -0.242716 4.980390 -87.506700 -5.685780 -66.273900 5.348090 -0.000007 -0.000001 -65.320500 -49.487100 -96.434700 24.328600 0.000019 0.000005 16.401700 10.091800 -59.234600 22.291600 -0.000001 0.000005 12.497000 5.374210 -2.117390 12.994500 -0.242716 -4.980390 87.487100 10.231800 -76.122000 -5.348130 -0.000001 -0.000004 -59.734800 30.607500 -8.627090 -24.328900 0.000322 -0.000009 2.429810 7.619890 -17.752500 -22.291500 -0.000108 -0.000004 14.607900 5.411680 -3.320780 -2.192480 -6.469440 -0.000000 -164.598000 -11.871100 2.268910 39.081100 -0.000007 -0.000012 -0.290901 0.441861 33.359700 40.985400 -0.000006 -0.000013 -4.004000 7.772230 -71.789900 11.754300 -0.000000 0.000003 -0.000100 -0.001025 -16.616900 -2.192510 6.469440 -0.000001 -179.762000 24.817900 -173.952000 -39.081100 -0.002282 -0.040193 -0.190839 0.350999 28.948000 -40.985400 0.000008 0.000006 9.127320 16.452100 -73.482100 -11.754300 -0.000006 -0.000006 -0.000413 -0.006684 -16.845300
0.000000 0.000000 0.000000 0.000000 0.000000 -0.000000 -7.595830 90.143300 -0.212742 85.309800 -5.764190 12.044300 15.735700 0.000005 -0.000001 72.921300 82.133400 -68.674000 8.984550 -0.406207 -0.000000 7.477660 -4.613580 8.791480 16.377300 -0.000001 -0.000001 27.112300 -11.796400 4.487560 6.456720 -0.000001 -0.000000 14.435300 -14.308300 19.943700 12.994200 -0.242716 4.980390 -87.494600 -5.696720 -66.212000 5.348090 -0.000007 -0.000001 -65.575300 -49.527700 -96.742800 24.328600 0.000019 0.000005 16.271000 10.044400 -59.139100 22.291600 -0.000001 0.000005 12.563700 5.373090 -2.082300 12.994500 -0.242716 -4.980390 87.485100 10.255200 -76.141400 -5.348130 -0.000001 -0.000004 -59.783400 30.558000 -8.541530 -24.328900 0.000322 -0.000009 2.475980 7.750580 -17.784600 -22.291500 -0.000108 -0.000004 14.597700 5.412990 -3.364370 -2.192480 -6.469440 -0.000000 -164.582000 -11.875100 2.325130 39.081100 -0.000007 -0.000012 -0.288997 0.438487 33.388500 40.985400 -0.000006 -0.000013 -4.023940 7.725180 -71.806600 11.754300 -0.000000 0.000003 -0.000092 -0.000960 -16.614400 -2.192510 6.469440 -0.000001 -179.765000 24.772200 -173.921000 -39.081100 -0.002282 -0.040193 -0.189149 0.347302 28.992600 -40.985400 0.000008 0.000006 9.152770 16.459300 -73.503300 -11.754300 -0.000006 -0.000006 -0.000391 -0.006341 -16.831400
0.000000 0.000000 0.000000 0.000000 0.000000 -0.000000 -7.607250 90.137100 -0.242335 85.276400 -5.835470 12.046900 15.735700 0.000005 -0.000001 72.856800 82.160400 -68.599200 8.984550 -0.406207 -0.000000 7.421220 -4.616890 8.809910 16.377300 -0.000001 -0.000001 27.109100 -11.780700 4.481650 6.456720 -0.000001 -0.000000 14.470900 -14.328100 19.927400 12.994200 -0.242716 4.980390 -87.488100 -5.715650 -66.226500 5.348090 -0.000007 -0.000001 -65.697900 -49.612000 -96.851800 24.328600 0.000019 0.000005 16.282000 10.051500 -59.139200 22.291600 -0.000001 0.000005 12.628700 5.372840 -2.074770 12.994500 -0.242716 -4.980390 87.485000 10.244900 -76.127800 -5.348130 -0.000001 -0.000004 -59.804700 30.559500 -8.521040 -24.328900 0.000322 -0.000009 2.485680 7.747960 -17.855600 -22.291500 -0.000108 -0.000004 14.584500 5.413360 -3.376790 -2.192480 -6.469440 -0.000000 -164.524000 -11.904700 2.305480 39.081100 -0.000007 -0.000012 -0.292525 0.443056 33.435200 40.985400 -0.000006 -0.000013 -4.047830 7.693000 -71.811000 11.754300 -0.000000 0.000003 -0.000102 -0.001046 -16.617700 -2.192510 6.469440 -0.000001 -179.702000 24.736300 -173.961000 -39.081100 -0.002282 -0.040193 -0.187654 0.344147 29.024900 -40.985400 0.000008 0.000006 9.187000 16.489000 -73.501200 -11.754300 -0.000006 -0.000006 -0.000392 -0.006354 -16.831900
